<?xml version="1.0" encoding="UTF-8"?>
<svg xmlns="http://www.w3.org/2000/svg" width="25" height="25" viewBox="0 0 25 25" fill="none">
  <path d="M20.833 2.08398H10.4163C9.26738 2.08398 8.33301 3.01836 8.33301 4.16732V8.33398H4.16634C3.01738 8.33398 2.08301 9.26836 2.08301 10.4173V20.834C2.08301 21.9829 3.01738 22.9173 4.16634 22.9173H14.583C15.732 22.9173 16.6663 21.9829 16.6663 20.834V16.6673H20.833C21.982 16.6673 22.9163 15.7329 22.9163 14.584V4.16732C22.9163 3.01836 21.982 2.08398 20.833 2.08398ZM4.16634 20.834V10.4173H14.583L14.5851 20.834H4.16634ZM20.833 14.584H16.6663V10.4173C16.6663 9.26836 15.732 8.33398 14.583 8.33398H10.4163V4.16732H20.833V14.584Z" fill="white"></path>
</svg>
