<?xml version="1.0" encoding="UTF-8"?>
<svg xmlns="http://www.w3.org/2000/svg" width="39" height="45" viewBox="0 0 39 45" fill="none">
  <g clip-path="url(#clip0_353_1014)">
    <path d="M1.34485 13.6364H12.7759V1.36365" stroke="#333333" stroke-width="2"></path>
    <path d="M32.9482 44.3182H0.672363V22.5V12.9546L12.1034 0.681824H16.8103H32.9482V14.3182" stroke="#333333" stroke-width="2"></path>
    <path d="M33.3383 36.1364V24.7276C33.3383 23.6994 33.6308 22.8821 34.2158 22.2758C34.8137 21.6562 35.6588 21.3464 36.7508 21.3464C37.1537 21.3464 37.5372 21.3991 37.9013 21.5046C38.2782 21.5969 38.5967 21.7485 38.8568 21.9594L38.2913 23.4028C38.0963 23.2446 37.8752 23.126 37.6283 23.0469C37.3812 22.9546 37.1213 22.9085 36.8483 22.9085C36.3023 22.9085 35.8862 23.0667 35.6003 23.383C35.3142 23.6862 35.1713 24.141 35.1713 24.7473V26.1512L35.2103 27.0212V36.1364H33.3383ZM31.5833 27.2189V25.6569H38.1743V27.2189H31.5833Z" fill="#333333"></path>
    <path d="M24.0439 36.2551C23.0428 36.2551 22.1458 36.031 21.3529 35.5829C20.5729 35.1347 19.9554 34.5085 19.5004 33.7045C19.0453 32.9003 18.8179 31.9645 18.8179 30.8967C18.8179 29.829 19.0453 28.8997 19.5004 28.1088C19.9554 27.3046 20.5729 26.6785 21.3529 26.2304C22.1458 25.7821 23.0428 25.5581 24.0439 25.5581C24.9148 25.5581 25.7014 25.7558 26.4034 26.1513C27.1054 26.5467 27.6644 27.1399 28.0804 27.9308C28.5094 28.7217 28.7239 29.7104 28.7239 30.8967C28.7239 32.0831 28.5159 33.0717 28.0999 33.8626C27.6969 34.6536 27.1444 35.2533 26.4424 35.662C25.7404 36.0574 24.9409 36.2551 24.0439 36.2551ZM24.1999 34.5942C24.8499 34.5942 25.4349 34.4426 25.9549 34.1395C26.4879 33.8363 26.9038 33.4079 27.2029 32.8542C27.5149 32.2874 27.6709 31.6349 27.6709 30.8967C27.6709 30.1454 27.5149 29.4994 27.2029 28.959C26.9038 28.4054 26.4879 27.9769 25.9549 27.6738C25.4349 27.3706 24.8499 27.219 24.1999 27.219C23.5369 27.219 22.9454 27.3706 22.4254 27.6738C21.9054 27.9769 21.4894 28.4054 21.1774 28.959C20.8654 29.4994 20.7094 30.1454 20.7094 30.8967C20.7094 31.6349 20.8654 32.2874 21.1774 32.8542C21.4894 33.4079 21.9054 33.8363 22.4254 34.1395C22.9454 34.4426 23.5369 34.5942 24.1999 34.5942ZM27.7294 36.1365V33.309L27.8464 30.877L27.6514 28.4449V21.4651H29.5234V36.1365H27.7294Z" fill="#333333"></path>
    <path d="M11.9608 36.2551C11.1028 36.2551 10.3163 36.0574 9.60131 35.6619C8.89931 35.2533 8.33381 34.6535 7.90481 33.8626C7.48879 33.0717 7.28081 32.083 7.28081 30.8967C7.28081 29.7103 7.48233 28.7217 7.88531 27.9308C8.30133 27.1399 8.86031 26.5467 9.56231 26.1512C10.2773 25.7558 11.0768 25.558 11.9608 25.558C12.9748 25.558 13.8718 25.7822 14.6518 26.2303C15.4318 26.6785 16.0493 27.3047 16.5043 28.1087C16.9593 28.8996 17.1868 29.829 17.1868 30.8967C17.1868 31.9644 16.9593 32.9003 16.5043 33.7044C16.0493 34.5085 15.4318 35.1347 14.6518 35.5828C13.8718 36.031 12.9748 36.2551 11.9608 36.2551ZM6.48132 39.9724V25.6569H8.27531V28.4844L8.15831 30.9165L8.35331 33.3485V39.9724H6.48132ZM11.8048 34.5942C12.4678 34.5942 13.0593 34.4426 13.5793 34.1394C14.1123 33.8362 14.5284 33.4078 14.8273 32.8542C15.1393 32.2874 15.2953 31.6349 15.2953 30.8967C15.2953 30.1453 15.1393 29.4994 14.8273 28.959C14.5284 28.4053 14.1123 27.9769 13.5793 27.6737C13.0593 27.3705 12.4678 27.219 11.8048 27.219C11.1549 27.219 10.5633 27.3705 10.0303 27.6737C9.51033 27.9769 9.09431 28.4053 8.78231 28.959C8.48329 29.4994 8.33381 30.1453 8.33381 30.8967C8.33381 31.6349 8.48329 32.2874 8.78231 32.8542C9.09431 33.4078 9.51033 33.8362 10.0303 34.1394C10.5633 34.4426 11.1549 34.5942 11.8048 34.5942Z" fill="#333333"></path>
  </g>
  <defs>
    <clipPath id="clip0_353_1014">
      <rect width="39" height="45" fill="white"></rect>
    </clipPath>
  </defs>
</svg>
