<?xml version="1.0" encoding="UTF-8"?>
<svg xmlns="http://www.w3.org/2000/svg" width="45" height="41" viewBox="0 0 45 41" fill="none">
  <g clip-path="url(#clip0_353_1069)">
    <path d="M1.24243 12.4241H11.803V1.24231" stroke="#333333" stroke-width="2"></path>
    <path d="M30.4394 40.3788H0.621216V20.5V11.803L11.1818 0.621216H15.5303H30.4394V13.0455" stroke="#333333" stroke-width="2"></path>
    <path d="M10.2327 24.2397C11.4038 24.2397 12.3316 24.5818 13.0157 25.2659C13.7115 25.9385 14.0593 26.93 14.0593 28.2403V33.5455H12.3895V28.4316C12.3895 27.5388 12.175 26.8662 11.7459 26.4139C11.3169 25.9617 10.7023 25.7356 9.90218 25.7356C8.9977 25.7356 8.28454 26.0023 7.76273 26.5357C7.24091 27.0575 6.98 27.8112 6.98 28.7969V33.5455H5.31018V20.6392H6.98V25.6312C7.32788 25.1906 7.78012 24.8485 8.33673 24.605C8.90495 24.3615 9.53691 24.2397 10.2327 24.2397ZM22.1591 33.0063C21.9156 33.215 21.6141 33.3773 21.2546 33.4933C20.8951 33.5976 20.524 33.6498 20.1414 33.6498C19.2137 33.6498 18.4947 33.4005 17.9845 32.9019C17.4743 32.4032 17.2192 31.6901 17.2192 30.7624V25.7008H15.6537V24.3267H17.2192V22.309H18.889V24.3267H21.5329V25.7008H18.889V30.6929C18.889 31.1915 19.0108 31.5742 19.2543 31.8409C19.5094 32.1075 19.8688 32.2409 20.3327 32.2409C20.8429 32.2409 21.2778 32.096 21.6373 31.8061L22.1591 33.0063ZM35.5361 24.2397C36.6957 24.2397 37.6118 24.576 38.2843 25.2486C38.9685 25.9211 39.3106 26.9184 39.3106 28.2403V33.5455H37.6407V28.4316C37.6407 27.5388 37.432 26.8662 37.0145 26.4139C36.6087 25.9617 36.0231 25.7356 35.2578 25.7356C34.4113 25.7356 33.7387 26.0023 33.2401 26.5357C32.7415 27.0575 32.4921 27.8112 32.4921 28.7969V33.5455H30.8223V28.4316C30.8223 27.5388 30.6136 26.8662 30.1961 26.4139C29.7903 25.9617 29.2047 25.7356 28.4393 25.7356C27.5929 25.7356 26.9203 26.0023 26.4216 26.5357C25.9231 27.0575 25.6737 27.8112 25.6737 28.7969V33.5455H24.0039V24.3267H25.6041V25.7008C25.9404 25.2254 26.3811 24.8659 26.9261 24.6224C27.4711 24.3672 28.0915 24.2397 28.7872 24.2397C29.5062 24.2397 30.1439 24.3846 30.7005 24.6746C31.2572 24.9645 31.6862 25.3877 31.9877 25.9443C32.3356 25.4109 32.8168 24.9934 33.4314 24.6919C34.0576 24.3905 34.7592 24.2397 35.5361 24.2397ZM42.2091 20.6392H43.8789V33.5455H42.2091V20.6392Z" fill="#333333"></path>
  </g>
  <defs>
    <clipPath id="clip0_353_1069">
      <rect width="44.7273" height="41" fill="white"></rect>
    </clipPath>
  </defs>
</svg>
